<?xml version="1.0"?>
<!--Icons from directory ""-->
<svg xmlns="http://www.w3.org/2000/svg" width="106" height="163" viewBox="0 0 106 163"><svg width="106" height="40" fill="none" id="Logo" y="0"><path d="M62.335 13.368c.222 0 .402.076.542.227.152.14.228.321.228.543a.74.74 0 0 1-.227.543.705.705 0 0 1-.543.227h-3.763v10.5a.761.761 0 0 1-.227.56c-.14.14-.32.21-.542.21-.21 0-.391-.07-.543-.21a.761.761 0 0 1-.227-.56v-10.5H53.27a.74.74 0 0 1-.543-.227.74.74 0 0 1-.227-.543c0-.222.076-.402.227-.543a.74.74 0 0 1 .543-.227h9.065zM68.908 13.368c.886 0 1.72.17 2.502.508.794.338 1.482.799 2.065 1.382a6.343 6.343 0 0 1 1.4 2.065c.338.782.508 1.616.508 2.503a6.259 6.259 0 0 1-.665 2.87 6.498 6.498 0 0 1-1.803 2.204l-.035.036c-.56.42-1.172.752-1.837.997a6.403 6.403 0 0 1-2.135.35c-.887 0-1.721-.17-2.503-.508a6.753 6.753 0 0 1-2.065-1.382 6.538 6.538 0 0 1-1.382-2.047 6.276 6.276 0 0 1-.508-2.52c0-.98.198-1.885.595-2.713.397-.84.94-1.557 1.628-2.152l.07-.07c.011 0 .029-.012.052-.036a6.334 6.334 0 0 1 1.89-1.085c.7-.268 1.44-.402 2.223-.402zm0 11.375c.443 0 .863-.052 1.26-.157a5.584 5.584 0 0 0 1.155-.473L65.18 16.64a4.916 4.916 0 0 0-.875 1.47 4.664 4.664 0 0 0-.315 1.716c0 .676.128 1.312.385 1.907s.607 1.12 1.05 1.575c.455.443.98.793 1.575 1.05s1.231.385 1.908.385zm3.622-1.592c.408-.444.724-.945.945-1.506.234-.571.35-1.178.35-1.82a4.813 4.813 0 0 0-1.453-3.465 4.813 4.813 0 0 0-3.464-1.452c-.467 0-.916.064-1.348.193a4.462 4.462 0 0 0-1.207.524l6.177 7.526zM82.351 20.63a.762.762 0 0 1-.595-.28l-4.498-5.775a.714.714 0 0 1-.157-.542.722.722 0 0 1 .28-.508.658.658 0 0 1 .543-.14c.21.024.379.117.507.28l3.92 5.006 3.832-4.918a.709.709 0 0 1 .49-.28c.21-.023.397.03.56.157a.721.721 0 0 1 .28.508.713.713 0 0 1-.157.543l-4.41 5.67a.73.73 0 0 1-.595.28zm4.918 5.636a1.572 1.572 0 0 1-.56-.105 3.865 3.865 0 0 1-.42-.228 2.376 2.376 0 0 1-.42-.42L82.35 20.98l-3.832 4.936a.721.721 0 0 1-.508.28.714.714 0 0 1-.542-.158.709.709 0 0 1-.28-.49.741.741 0 0 1 .157-.56l4.41-5.67a.682.682 0 0 1 .578-.28c.256 0 .46.093.612.28l4.095 5.25c.058.082.11.134.157.157l.106.053c.198 0 .361.07.49.21.14.128.215.292.227.49a.657.657 0 0 1-.175.542.744.744 0 0 1-.525.245h-.052zM91.734 26.265a.761.761 0 0 1-.56-.227.761.761 0 0 1-.227-.56V14.103c0-.21.076-.39.227-.543a.761.761 0 0 1 .56-.227c.21 0 .391.076.543.227a.74.74 0 0 1 .227.543v11.375a.761.761 0 0 1-.227.56.74.74 0 0 1-.543.227zM104.938 26.23a.685.685 0 0 1-.595-.297l-7.298-9.59v9.135a.74.74 0 0 1-.227.542.712.712 0 0 1-.525.21.75.75 0 0 1-.753-.752V14.12c0-.163.047-.309.14-.437a.697.697 0 0 1 .385-.262.678.678 0 0 1 .455-.018.79.79 0 0 1 .385.262l7.28 9.608v-9.152c0-.199.07-.374.21-.526a.742.742 0 0 1 .543-.227c.21 0 .385.076.525.227a.723.723 0 0 1 .227.525v11.358c0 .163-.047.31-.14.438a.799.799 0 0 1-.367.28 1.492 1.492 0 0 1-.245.034z" fill="#1F2041"/><path d="M20 27.059a1.18 1.18 0 0 1-1.176-1.177c0-4.53-3.706-8.235-8.235-8.235a1.18 1.18 0 0 1-1.177-1.177c0-.647.53-1.176 1.177-1.176a10.582 10.582 0 0 1 10.588 10.588A1.18 1.18 0 0 1 20 27.06z" fill="url(#Logo-paint0_linear)"/><path d="M30.588 16.47a1.18 1.18 0 0 1-1.176 1.177 8.21 8.21 0 0 0-6.765 3.559 12.044 12.044 0 0 0-1.176-2.294 10.49 10.49 0 0 1 7.94-3.618c.648 0 1.177.53 1.177 1.176z" fill="url(#Logo-paint1_linear)"/><path d="M20 40C8.97 40 0 31.03 0 20S8.97 0 20 0s20 8.97 20 20-8.97 20-20 20zm0-37.647C10.265 2.353 2.353 10.265 2.353 20S10.265 37.647 20 37.647 37.647 29.735 37.647 20 29.735 2.353 20 2.353z" fill="url(#Logo-paint2_linear)"/><defs><linearGradient id="Logo-paint0_linear" x1="15.294" y1="15.294" x2="15.294" y2="27.059" gradientUnits="userSpaceOnUse"><stop stop-color="#BC9CFF"/><stop offset="1" stop-color="#8BA4F9"/></linearGradient><linearGradient id="Logo-paint1_linear" x1="26.029" y1="15.294" x2="26.029" y2="21.206" gradientUnits="userSpaceOnUse"><stop stop-color="#6FCF97"/><stop offset="1" stop-color="#66D2EA"/></linearGradient><linearGradient id="Logo-paint2_linear" x1="20" x2="20" y2="40" gradientUnits="userSpaceOnUse"><stop stop-color="#BC9CFF"/><stop offset="1" stop-color="#8BA4F9"/></linearGradient></defs></svg><svg width="10" height="11" fill="none" id="check" y="40"><path d="M1.464 4.408L5.707 8.65l-1.414 1.415L.05 5.822l1.414-1.414z" fill="url(#check-paint0_linear)"/><path d="M8.535 2.993L9.95 4.408l-5.657 5.657L2.879 8.65l5.656-5.657z" fill="url(#check-paint1_linear)"/><defs><linearGradient id="check-paint0_linear" x1="7.828" y1="2.286" x2="2.171" y2="7.943" gradientUnits="userSpaceOnUse"><stop stop-color="#BC9CFF"/><stop offset="1" stop-color="#8BA4F9"/></linearGradient><linearGradient id="check-paint1_linear" x1="7.828" y1="2.286" x2="2.171" y2="7.943" gradientUnits="userSpaceOnUse"><stop stop-color="#BC9CFF"/><stop offset="1" stop-color="#8BA4F9"/></linearGradient></defs></svg><svg width="22" height="22" fill="none" id="facebook" y="51"><path d="M21.5 2.75v16.5a2.17 2.17 0 0 1-.656 1.594 2.17 2.17 0 0 1-1.594.656h-3.984v-8.297h2.812l.422-3.187h-3.234V8c0-.5.093-.875.28-1.125.25-.281.673-.422 1.267-.422H18.5V3.641c-.656-.094-1.469-.141-2.438-.141-1.25 0-2.25.375-3 1.125-.718.719-1.078 1.734-1.078 3.047v2.344H9.125v3.187h2.86V21.5H2.75a2.17 2.17 0 0 1-1.594-.656A2.17 2.17 0 0 1 .5 19.25V2.75c0-.625.219-1.156.656-1.594A2.17 2.17 0 0 1 2.75.5h16.5a2.17 2.17 0 0 1 1.594.656c.437.438.656.969.656 1.594z" fill="url(#facebook-paint0_linear)"/><defs><linearGradient id="facebook-paint0_linear" x1="11" y1="-1" x2="11" y2="23" gradientUnits="userSpaceOnUse"><stop stop-color="#BC9CFF"/><stop offset="1" stop-color="#8BA4F9"/></linearGradient></defs></svg><svg width="22" height="22" fill="none" id="instagram" y="73"><path d="M11 5.61c-.969 0-1.875.25-2.719.75a5.406 5.406 0 0 0-1.969 1.968A5.252 5.252 0 0 0 5.61 11c0 .969.235 1.875.704 2.719a5.93 5.93 0 0 0 1.968 1.969A5.51 5.51 0 0 0 11 16.39c.969 0 1.86-.235 2.672-.703.844-.5 1.5-1.157 1.969-1.97.5-.843.75-1.75.75-2.718a5 5 0 0 0-.75-2.672 4.972 4.972 0 0 0-1.97-1.969A5 5 0 0 0 11 5.61zm0 8.906a3.386 3.386 0 0 1-2.484-1.032A3.386 3.386 0 0 1 7.484 11c0-.969.344-1.797 1.032-2.484A3.386 3.386 0 0 1 11 7.484c.969 0 1.797.344 2.484 1.032A3.386 3.386 0 0 1 14.516 11c0 .969-.344 1.797-1.032 2.484A3.386 3.386 0 0 1 11 14.516zm6.89-9.141c-.03.344-.171.64-.421.89-.219.25-.5.376-.844.376s-.64-.125-.89-.375a1.217 1.217 0 0 1-.376-.891c0-.344.125-.64.375-.89s.547-.376.891-.376.64.125.89.375.376.547.376.891zm3.563 1.266c-.062-.907-.203-1.688-.422-2.344A5.13 5.13 0 0 0 19.72 2.28 5.13 5.13 0 0 0 17.703.97C17.047.75 16.266.625 15.36.594 14.484.53 13.031.5 11 .5S7.5.531 6.594.594c-.875.031-1.64.156-2.297.375A5.537 5.537 0 0 0 2.234 2.28 5.392 5.392 0 0 0 .97 4.297C.75 4.953.609 5.734.547 6.64.516 7.516.5 8.969.5 11s.016 3.5.047 4.406c.062.875.203 1.64.422 2.297a5.841 5.841 0 0 0 1.265 2.063 5.318 5.318 0 0 0 2.063 1.218c.656.25 1.422.391 2.297.422.906.063 2.375.094 4.406.094 2.031 0 3.484-.031 4.36-.094.906-.031 1.687-.156 2.343-.375a5.392 5.392 0 0 0 2.016-1.265 5.536 5.536 0 0 0 1.312-2.063c.219-.656.344-1.422.375-2.297.063-.906.094-2.375.094-4.406 0-2.031-.016-3.484-.047-4.36zm-2.25 10.546c-.375.938-1.047 1.61-2.015 2.016-.5.188-1.344.313-2.532.375-.656.031-1.625.047-2.906.047h-1.5c-1.25 0-2.219-.016-2.906-.047-1.157-.062-2-.187-2.532-.375-.937-.375-1.609-1.047-2.015-2.015-.188-.532-.313-1.375-.375-2.532a68.365 68.365 0 0 1-.047-2.906v-1.5c0-1.25.016-2.219.047-2.906.062-1.188.187-2.032.375-2.532.375-.968 1.047-1.64 2.015-2.015.532-.188 1.375-.313 2.532-.375a68.37 68.37 0 0 1 2.906-.047h1.5c1.25 0 2.219.016 2.906.047 1.188.062 2.031.187 2.531.375.97.375 1.641 1.047 2.016 2.015.188.5.313 1.344.375 2.532.031.656.047 1.625.047 2.906v1.5c0 1.25-.016 2.219-.047 2.906-.062 1.156-.187 2-.375 2.531z" fill="url(#instagram-paint0_linear)"/><defs><linearGradient id="instagram-paint0_linear" x1="11" y1="-1" x2="11" y2="23" gradientUnits="userSpaceOnUse"><stop stop-color="#BC9CFF"/><stop offset="1" stop-color="#8BA4F9"/></linearGradient></defs></svg><svg width="24" height="20" fill="none" id="twitter" y="95"><path d="M21.516 5.125c.03.125.047.328.047.61 0 2.25-.547 4.421-1.641 6.515-1.125 2.219-2.703 3.984-4.735 5.297-2.218 1.469-4.765 2.203-7.64 2.203-2.75 0-5.266-.734-7.547-2.203.344.031.734.047 1.172.047 2.281 0 4.328-.703 6.14-2.11-1.093 0-2.062-.312-2.906-.937a5.085 5.085 0 0 1-1.687-2.438c.312.032.61.047.89.047.438 0 .875-.047 1.313-.14-1.125-.25-2.063-.829-2.813-1.735C1.36 9.375.984 8.344.984 7.187v-.093a4.634 4.634 0 0 0 2.204.656 5.46 5.46 0 0 1-1.594-1.781 4.683 4.683 0 0 1-.61-2.344c0-.875.235-1.703.704-2.484A13.646 13.646 0 0 0 6.14 4.797a13.794 13.794 0 0 0 5.671 1.5 6.832 6.832 0 0 1-.093-1.125c0-.875.219-1.688.656-2.438A4.77 4.77 0 0 1 14.156.906 4.754 4.754 0 0 1 16.594.25c.718 0 1.375.14 1.968.422a5.473 5.473 0 0 1 1.641 1.125 10.015 10.015 0 0 0 3.14-1.172c-.374 1.156-1.093 2.063-2.155 2.719.937-.125 1.875-.39 2.812-.797-.688 1-1.516 1.86-2.484 2.578z" fill="url(#twitter-paint0_linear)"/><defs><linearGradient id="twitter-paint0_linear" x1="12" y1="-2" x2="12" y2="22" gradientUnits="userSpaceOnUse"><stop stop-color="#BC9CFF"/><stop offset="1" stop-color="#8BA4F9"/></linearGradient></defs></svg><svg width="48" height="48" id="ui_kit_logo" y="115"><path fill="#1f2041" fill-opacity=".25" d="M23.996 32.468a1.416 1.416 0 0 1-1.412-1.412c0-5.435-4.447-9.882-9.882-9.882a1.416 1.416 0 0 1-1.412-1.412c0-.777.635-1.412 1.412-1.412 7.023 0 12.706 5.682 12.706 12.706 0 .776-.636 1.412-1.412 1.412zM36.701 19.762c0 .776-.635 1.412-1.412 1.412a9.851 9.851 0 0 0-8.117 4.27 14.447 14.447 0 0 0-1.412-2.753 12.588 12.588 0 0 1 9.53-4.341c.776 0 1.411.635 1.411 1.412z"/><path fill="#1f2041" fill-opacity=".25" d="M24 48C10.765 48 0 37.235 0 24S10.765 0 24 0s24 10.765 24 24-10.765 24-24 24zm0-45.176C12.318 2.824 2.824 12.318 2.824 24c0 11.682 9.494 21.176 21.176 21.176 11.682 0 21.177-9.494 21.177-21.176 0-11.682-9.495-21.176-21.177-21.176z"/></svg></svg>
