<?xml version="1.0" standalone="no"?>
<!DOCTYPE svg PUBLIC "-//W3C//DTD SVG 20010904//EN"
 "http://www.w3.org/TR/2001/REC-SVG-20010904/DTD/svg10.dtd">
<svg version="1.0" xmlns="http://www.w3.org/2000/svg"
 width="700.000000pt" height="700.000000pt" viewBox="0 0 700.000000 700.000000"
 preserveAspectRatio="xMidYMid meet">
<metadata>
Created by potrace 1.11, written by Peter Selinger 2001-2013
</metadata>
<g transform="translate(0.000000,700.000000) scale(0.100000,-0.100000)"
fill="#000000" stroke="none">
<path d="M3278 6996 c-1 -2 -42 -6 -89 -10 -47 -4 -95 -8 -105 -10 -10 -2 -45
-7 -78 -11 -71 -8 -85 -11 -211 -37 -1106 -227 -2042 -984 -2499 -2021 -79
-180 -156 -405 -192 -557 -40 -174 -66 -313 -79 -430 -28 -238 -28 -638 0
-837 10 -67 14 -99 20 -148 4 -27 10 -66 15 -85 5 -19 12 -48 14 -65 44 -242
158 -570 293 -840 221 -441 495 -789 889 -1130 89 -77 440 -325 460 -325 2 0
23 -12 46 -26 60 -38 299 -156 401 -198 160 -66 433 -153 571 -182 88 -19 210
-41 271 -49 22 -2 56 -7 75 -10 187 -26 697 -27 838 0 16 3 104 15 147 20 61
8 206 40 322 70 631 168 1203 505 1647 974 76 81 76 80 152 171 98 118 294
387 294 404 0 2 18 34 40 71 224 367 403 900 456 1350 4 33 9 76 11 95 8 71
10 517 3 595 -17 172 -22 220 -25 225 -2 3 -6 30 -10 60 -7 56 -59 300 -75
355 -127 417 -241 670 -445 990 -36 57 -201 284 -214 295 -3 3 -38 43 -78 90
-69 82 -280 293 -373 374 -25 21 -79 64 -120 95 -41 31 -77 58 -80 62 -12 13
-201 139 -280 186 -368 220 -855 397 -1230 448 -19 3 -46 7 -60 10 -13 2 -52
7 -86 11 -33 3 -74 8 -90 10 -33 5 -540 14 -546 10z m505 -420 c26 -3 68 -8
95 -11 192 -22 542 -104 657 -155 11 -5 46 -18 78 -29 235 -85 575 -278 793
-453 122 -98 140 -113 284 -258 404 -402 676 -890 815 -1460 13 -52 26 -115
30 -140 4 -25 9 -52 10 -60 17 -98 21 -125 31 -245 15 -162 9 -527 -10 -632
-2 -10 -7 -44 -11 -77 -41 -340 -191 -772 -385 -1106 -83 -145 -239 -362 -340
-475 -73 -82 -267 -274 -330 -326 -36 -30 -67 -56 -70 -59 -8 -9 -152 -114
-200 -147 -163 -111 -527 -303 -572 -303 -8 0 -18 -4 -24 -9 -12 -13 -257 -94
-359 -120 -118 -29 -250 -56 -335 -67 -25 -3 -56 -7 -70 -10 -111 -19 -470
-25 -630 -11 -446 40 -844 161 -1240 379 -167 92 -372 235 -525 368 -87 74
-304 300 -376 390 -278 347 -470 727 -587 1160 -22 79 -56 252 -67 333 -4 27
-8 57 -10 67 -19 100 -26 492 -11 650 15 162 42 329 67 425 6 22 12 47 14 55
20 101 106 356 162 480 112 249 234 455 392 660 89 115 115 145 266 295 122
122 172 168 270 245 22 17 48 38 59 46 10 9 62 44 115 79 53 36 101 68 107 72
28 22 212 121 304 165 229 109 512 200 750 242 170 31 175 31 315 42 50 4 91
8 93 9 6 5 398 -3 445 -9z"/>
<path d="M1825 4320 c-164 -25 -233 -217 -122 -342 39 -44 98 -65 190 -67 84
-3 98 -4 177 -16 337 -51 668 -237 880 -495 25 -30 48 -57 51 -60 18 -16 97
-144 135 -220 56 -113 88 -196 113 -301 31 -129 34 -151 45 -330 5 -78 22
-123 62 -163 104 -103 284 -65 334 72 17 49 19 101 6 252 -28 330 -169 684
-383 962 -101 133 -279 298 -429 398 -135 92 -400 217 -498 236 -10 2 -33 8
-50 13 -17 6 -67 17 -111 26 -44 9 -89 18 -100 21 -10 2 -62 6 -115 10 -52 3
-106 7 -120 8 -14 1 -43 -1 -65 -4z"/>
<path d="M5078 4324 c-2 -1 -42 -5 -89 -8 -48 -3 -111 -11 -140 -16 -30 -6
-67 -13 -84 -16 -159 -27 -397 -121 -561 -220 -145 -87 -325 -234 -413 -336
l-32 -37 50 -85 c47 -79 112 -211 140 -283 l13 -32 44 59 c57 75 174 193 250
250 32 25 61 48 64 51 11 13 170 104 225 130 69 31 226 85 270 93 17 3 62 11
100 19 39 7 113 14 165 16 148 4 211 36 249 123 47 106 9 217 -90 268 -29 15
-152 34 -161 24z"/>
</g>
</svg>
